<?xml version="1.0" encoding="UTF-8"?><svg id="Layer_1" xmlns="http://www.w3.org/2000/svg" width="300" height="189.03" viewBox="0 0 300 189.03"><defs><style>.cls-1{fill:#231f20;}</style></defs><path class="cls-1" d="M40.48,119.2c13.11-6.03,21.51-19.67,21.51-35.41,0-5.77-2.1-9.18-5.51-9.18-12.85,0-16.79,28.86-16.26,39.87,0,1.58,.26,3.15,.26,4.72Zm24.66,48c-23.87,0-46.43-19.15-46.43-51.94s19.94-58.23,40.13-58.23c14.69,0,23.61,10.76,23.61,26.49,0,19.41-13.38,42.49-38.82,50.1,3.67,8.92,8.79,15.68,24.39,16.26,15.61,.59,18.57-1.65,22.46-4.97,8.96-8.66,24.16-21.66,23.16-28.35-1.67-11.2-6.5-24.39-13.58-36.46-5.18-5.94-2.29-3.97-8.14-10.16-3.67-3.89-3.92-12.92,7.09-12.92,4.2,0,10.49,1.57,13.9,7.08,6.3,10.23,7.66,19.94,13.06,34.36,8.92-13.64,16-26.23,20.46-34.63,2.36-4.72,4.46-7.08,7.34-7.08,5.25,0,11.02,7.61,11.02,13.64,0,1.58-.26,2.89-1.05,3.94l-29.64,42.23c9.97,21.25,17.05,34.36,26.76,34.36,10.49,0,15.47-17.74,17.31-29.38,2.28-14.4,3.67-7.87,6.3-7.87,4.2,0,9.18,5.77,9.18,10.76,0,.26,0,.79-.26,1.83-4.46,17.31-13.64,40.92-34.89,40.92-15.74,0-25.45-8.92-36.72-32.79l-19.65,22.16c-7,5.59-13.33,8.69-18.37,9.94l-18.62,.69Z"/><path class="cls-1" d="M175.17,33.1c.49-9.13,7.97-15.91,16.67-15.91,9.23,0,15.72,6.79,15.24,15.92-.46,8.61-7.7,15.91-16.93,15.91-8.7,0-15.43-7.31-14.97-15.92Zm21.4,104.47c-.13,2.35-.64,12,6.21,12.01,10.55,0,16.91-16.57,19.17-28.17,3.76-19.29,17.6-3.64,15.04,4.7-5.66,17.22-17.2,40.7-39.87,40.69-13.98,0-21.55-11.23-20.84-24.54l3.71-69.67c.26-4.96-.71-6.52-.61-8.35,.14-2.61,3.4-4.43,7.09-4.43,8.7,0,13.96,5.23,13.63,11.49l-3.53,66.28Z"/><path class="cls-1" d="M220.78,33.12c.49-9.13,7.97-15.91,16.67-15.91,9.23,0,15.72,6.79,15.24,15.92-.46,8.61-7.7,15.91-16.93,15.91-8.7,0-15.43-7.31-14.97-15.92Zm21.4,104.47c-.13,2.35-.64,12,6.21,12.01,10.55,0,16.19-16.69,19.17-28.17,4.01-15.91,17.6-3.64,15.04,4.7-5.66,17.22-17.2,40.7-39.87,40.69-13.98,0-21.55-11.23-20.84-24.54l3.71-69.67c.26-4.96-.71-6.52-.61-8.35,.14-2.61,3.4-4.43,7.09-4.43,8.7,0,13.96,5.23,13.63,11.49l-3.53,66.28Z"/></svg>